inDegrees=yes
name=ik_lifting_orientations
DataType=double
version=3
OpenSimVersion=4.5-2024-01-10-34fd6af
endheader
time	pelvis_tilt	pelvis_list	pelvis_rotation	pelvis_tx	pelvis_ty	pelvis_tz	hip_flexion_r	hip_adduction_r	hip_rotation_r	knee_angle_r	knee_angle_r_beta	ankle_angle_r	subtalar_angle_r	mtp_angle_r	hip_flexion_l	hip_adduction_l	hip_rotation_l	knee_angle_l	knee_angle_l_beta	ankle_angle_l	subtalar_angle_l	mtp_angle_l	lumbar_extension	lumbar_bending	lumbar_rotation	arm_flex_r	arm_add_r	arm_rot_r	elbow_flex_r	pro_sup_r	wrist_flex_r	wrist_dev_r	arm_flex_l	arm_add_l	arm_rot_l	elbow_flex_l	pro_sup_l	wrist_flex_l	wrist_dev_l
2.21	0.1605817492135473	0.7795114536641579	-104.8890008717089	0	0.9399999998679526	0	45.05536210438935	-10.3692666310884	0	60.16633247957757	1.050100600618233	-5.113359887601808	0	0	45.05536210438935	-10.3692666310884	0	60.16633247957757	1.050100600618233	-5.113359887601808	0	0	0.4585173328458103	-0.3225685276574965	-2.659732700897546	60.14213178175029	8.650161950931091	22.46936174189286	85.55923160615612	1.656355486688598	0	0	0	-11.01575821458171	0	88.37803821368733	1.656355486688598	0	0
2.22	0.1658123238767216	0.6989741381761488	-104.8816147772806	0	0.9399999998679526	0	45.05534802334147	-10.36893895277383	0	60.16629926078821	1.050100020840985	-5.113228719584545	0	0	45.05534802334147	-10.36893895277383	0	60.16629926078821	1.050100020840985	-5.113228719584545	0	0	0.5072013185225975	-0.3177507898493621	-2.733662844817415	60.60729976277717	8.382232053327321	22.57086977550796	84.10293245910061	1.656062134780577	0	0	0	-11.01627818960763	0	88.3783254398279	1.656062134780577	0	0
2.23	0.1696795537653457	0.7590551070608385	-104.7414903466637	0	0.9399999998679526	0	45.05533463588153	-10.3686271998527	0	60.16626770888681	1.05009947015642	-5.113103926865665	0	0	45.05533463588153	-10.3686271998527	0	60.16626770888681	1.05009947015642	-5.113103926865665	0	0	0.6794722216481863	-0.2824170877038006	-2.818219285112254	60.73676372835175	7.75672108634584	22.44898025435335	82.9589225665724	1.655783321964101	0	0	0	-11.01677225092845	0	88.37859843047652	1.655783321964101	0	0
2.24	0.1570367524321155	0.6682639697735068	-104.56334723394	0	0.9399999998679526	0	45.05531565783463	-10.3681844119682	0	60.16622307394488	1.050098691129722	-5.112926647502	0	0	45.05531565783463	-10.3681844119682	0	60.16622307394488	1.050098691129722	-5.112926647502	0	0	0.70649238643377	-0.2751835309351469	-3.063244603238278	60.96214295817083	7.037248749455852	21.72389660607961	81.65010264587833	1.655388367716979	0	0	0	-11.01747166457904	0	88.37898513727281	1.655388367716979	0	0
2.25	0.1327885677774607	0.5928861713773126	-103.9848305071115	0	0.9399999998679526	0	45.05530319910643	-10.3678946091995	0	60.16619371783981	1.050098178769033	-5.112810708592748	0	0	45.05530319910643	-10.3678946091995	0	60.16619371783981	1.050098178769033	-5.112810708592748	0	0	0.8509684873230545	-0.2112143432239365	-3.507995099885472	60.94100238537084	6.076266630775656	20.88146102346747	81.05925897900219	1.655128886016138	0	0	0	-11.01793146424791	0	88.37923920047955	1.655128886016138	0	0
2.26	0.1245626327366219	0.4996155899461834	-103.4208701046987	0	0.9399999998679526	0	45.05528912902467	-10.36756891447715	0	60.16616045305953	1.050097598189092	-5.112680555281391	0	0	45.05528912902467	-10.36756891447715	0	60.16616045305953	1.050097598189092	-5.112680555281391	0	0	0.9760602264510402	-0.151366727536699	-3.81613791866746	61.09116343309292	5.206096644609284	20.54262905165569	80.24272261505702	1.654835445490944	0	0	0	-11.01845202504064	0	88.37952651340889	1.654835445490944	0	0
2.27	0.1089935933308603	0.385935650848852	-103.0479144273637	0	0.9399999998679526	0	45.05527618666011	-10.36726946111454	0	60.16612985515876	1.050097064154979	-5.112560914307346	0	0	45.05527618666011	-10.36726946111454	0	60.16612985515876	1.050097064154979	-5.112560914307346	0	0	1.072616981645187	-0.09512089547865137	-3.939950605930433	61.35373128997389	4.383206997125296	20.34454452182255	79.20281003527333	1.654565512873499	0	0	0	-11.01893089286473	0	88.37979080932151	1.654565512873499	0	0
2.28	0.1021523818107119	0.2867903546368866	-103.1140489579939	0	0.9399999998679526	0	45.05526179720249	-10.36693525123853	0	60.16609594871572	1.050096472375911	-5.112427300274162	0	0	45.05526179720249	-10.36693525123853	0	60.16609594871572	1.050096472375911	-5.112427300274162	0	0	1.078734621716607	-0.07625708733341019	-3.762003198193512	61.54255843678709	3.877915023891678	19.85602004102358	78.65007662988997	1.65426576998102	0	0	0	-11.0194620847142	0	88.38008429299069	1.65426576998102	0	0
2.29	0.09542136921324915	0.1802820744080763	-103.1701771174317	0	0.9399999998679526	0	45.05524690026691	-10.36658893353708	0	60.16606089062249	1.050095860496754	-5.112288843882963	0	0	45.05524690026691	-10.36658893353708	0	60.16606089062249	1.050095860496754	-5.112288843882963	0	0	1.123737768218919	-0.02167613680086646	-3.301365688490045	61.54954161536291	3.633574902116361	20.29725712747158	78.30285708426048	1.653955587253935	0	0	0	-11.02001156795757	0	88.38038799848208	1.653955587253935	0	0
2.3	0.08450865180598717	0.05959526400527325	-103.1764774282142	0	0.9399999998679526	0	45.05523100288181	-10.3662197874109	0	60.16602346258556	1.050095207254277	-5.112141318875612	0	0	45.05523100288181	-10.3662197874109	0	60.16602346258556	1.050095207254277	-5.112141318875612	0	0	1.157014086399958	0.03875475269703126	-2.883387339044742	61.5761151636323	3.343416364770714	20.96144349902486	77.60240200254684	1.653624499347588	0	0	0	-11.02059818251832	0	88.38071217261613	1.653624499347588	0	0
2.31	0.07352188007874332	-0.06444078223675304	-103.1151692604732	0	0.9399999998679526	0	45.05521417710612	-10.36582970500303	0	60.16598382078656	1.050094515374363	-5.111985503792015	0	0	45.05521417710612	-10.36582970500303	0	60.16598382078656	1.050094515374363	-5.111985503792015	0	0	0.6588710804911304	-0.03824245150965051	-2.879423315795266	62.32611398301169	3.189403069334987	21.33803893669737	76.74060491334195	1.653273956470046	0	0	0	-11.02121943188338	0	88.38105539547136	1.653273956470046	0	0
2.32	0.06461444731794283	-0.1245358234320546	-102.9909338969751	0	0.9399999998679526	0	45.0551967268668	-10.36542617229146	0	60.16594264514119	1.05009379672378	-5.111824422297565	0	0	45.0551967268668	-10.36542617229146	0	60.16594264514119	1.05009379672378	-5.111824422297565	0	0	0.05480460304851011	-0.1726775713954417	-2.946214569501139	63.51643757898256	2.963372162785994	21.48107516728324	75.75370336358253	1.65291016717553	0	0	0	-11.02186449883595	0	88.3814115881483	1.65291016717553	0	0
2.33	0.06484689563624335	-0.1274872465562024	-102.9358551038634	0	0.9399999998679526	0	45.05517825400329	-10.36499883866927	0	60.16589909385785	1.050093036610492	-5.111653859999997	0	0	45.05517825400329	-10.36499883866927	0	60.16589909385785	1.050093036610492	-5.111653859999997	0	0	-0.07672971091593979	-0.1982235919562253	-2.9332010576159	64.24279130934391	2.742623445128836	21.77737604743308	74.76884362774474	1.652525158588017	0	0	0	-11.02254702599659	0	88.38178855701311	1.652525158588017	0	0
2.34	0.0626521303391363	-0.1859494845402974	-102.9930967203231	0	0.9399999998679526	0	45.05516101843644	-10.36460027135505	0	60.16585847161642	1.05009232761863	-5.111494820561287	0	0	45.05516101843644	-10.36460027135505	0	60.16585847161642	1.05009232761863	-5.111494820561287	0	0	-0.07562190145329853	-0.1711020914054085	-2.624440266302378	64.84657251510289	2.397415912243085	22.41255893935604	73.60369499145905	1.652165952814679	0	0	0	-11.02318377211187	0	88.38214026187602	1.652165952814679	0	0
2.35	0.05857872088499915	-0.3279386943017502	-102.7990977192902	0	0.9399999998679526	0	45.05514134433048	-10.36414546583947	0	60.1658121159338	1.050091518559341	-5.111313386036707	0	0	45.05514134433048	-10.36414546583947	0	60.1658121159338	1.050091518559341	-5.111313386036707	0	0	-0.3461068114688099	-0.204979516483208	-2.45311386945603	65.36626143294539	1.569936282471041	22.61513305071406	73.37090889217473	1.651755943471514	0	0	0	-11.02391053148878	0	88.38254170943178	1.651755943471514	0	0
2.36	0.06021916481270781	-0.1023310099212651	-102.4539662428077	0	0.9399999998679526	0	45.05512436316172	-10.36375352292921	0	60.16577207785275	1.050090819763001	-5.111157104760577	0	0	45.05512436316172	-10.36375352292921	0	60.16577207785275	1.050090819763001	-5.111157104760577	0	0	-0.07476981584032963	-0.1337061027461413	-2.673904972707711	65.50035156189703	1.180885995603165	22.96653141519795	73.34546754799746	1.651401936847517	0	0	0	-11.02453818667574	0	88.38288832372166	1.651401936847517	0	0
2.37	0.0691566882530473	0.1187662942040671	-102.1179450941512	0	0.9399999998679526	0	45.05511053799763	-10.36343482975972	0	60.16573946451082	1.050090250552804	-5.11103008326593	0	0	45.05511053799763	-10.36343482975972	0	60.16573946451082	1.050090250552804	-5.11103008326593	0	0	0.3464158779736557	-0.01790584094639051	-2.754058072165482	65.61051111264558	1.072034496735976	23.64537718879561	72.73217946190786	1.651113649071311	0	0	0	-11.02504942284276	0	88.38317059150404	1.651113649071311	0	0
2.38	0.06729572992642022	0.495885222833622	-101.809419388298	0	0.9399999998679526	0	45.05509706694556	-10.36312457417505	0	60.16570767815758	1.050089695776283	-5.110906463842199	0	0	45.05509706694556	-10.36312457417505	0	60.16570767815758	1.050089695776283	-5.110906463842199	0	0	0.9185514335923731	0.1401131183151738	-2.820378604240318	65.71416986696806	0.993692261865829	24.40943929805902	72.1247415610716	1.650832701461914	0	0	0	-11.02554769891453	0	88.38344567239938	1.650832701461914	0	0
2.39	0.05830711807524123	0.9232855458260021	-101.491609409139	0	0.9399999998679526	0	45.05508428422348	-10.36283284675221	0	60.16567731118329	1.050089165772597	-5.110790451014753	0	0	45.05508428422348	-10.36283284675221	0	60.16567731118329	1.050089165772597	-5.110790451014753	0	0	1.389584220401921	0.2933527188488761	-2.773376851601137	65.81508355205079	0.862613121788206	24.21956343656089	71.60569754789276	1.650565396072977	0	0	0	-11.02602284151728	0	88.3837073959957	1.650565396072977	0	0
2.4	0.04877306499240249	1.300459601270273	-101.2929240383457	0	0.9399999998679526	0	45.05507335527946	-10.36258185024529	0	60.16565148994151	1.050088715106911	-5.11069052886708	0	0	45.05507335527946	-10.36258185024529	0	60.16565148994151	1.050088715106911	-5.11069052886708	0	0	1.653501813288992	0.3752443757520312	-2.789491578181552	66.36186611955502	0.58225710587454	23.42428931676077	71.42554115598189	1.650337326976441	0	0	0	-11.02642752480596	0	88.38393070259033	1.650337326976441	0	0
